<svg xmlns:xlink="http://www.w3.org/1999/xlink" xmlns="http://www.w3.org/2000/svg" class="fxg-icon cc-aem-c-icon" aria-hidden="true" focusable="false" role="presentation" width="32"  height="32" ><defs><svg id="social_twitter" viewBox="0 0 32 32" fill="none" xmlns="http://www.w3.org/2000/svg">
			<path fill-rule="evenodd" clip-rule="evenodd" d="M16 1C7.7 1 1 7.7 1 16C1 24.3 7.7 31 16 31C24.3 31 31 24.3 31 16C31 7.7 24.3 1 16 1Z" stroke="#333333" stroke-width="2"></path>
			<path d="M17.5222 15.7749L23.4785 9H22.0671L16.8952 14.8826L12.7644 9H8L14.2466 17.8955L8 25H9.41154L14.8732 18.7878L19.2356 25H24L17.5218 15.7749H17.5222ZM15.5889 17.9738L14.956 17.0881L9.92015 10.0397H12.0882L16.1522 15.728L16.7851 16.6137L22.0677 24.0076H19.8997L15.5889 17.9742V17.9738Z" fill="#333333"></path>
		</svg></defs>
								<use xlink:href="#social_twitter"></use>
							</svg>